<svg xmlns="http://www.w3.org/2000/svg" viewBox="0 0 200 20"><polyline points="20,9.52 20.4,10.48 20.8,9.52 21.2,10.48 21.6,9.52 22,10.48 22.4,9.52 22.8,10.48 23.2,9.52 23.6,10.48 24,9.52 24.4,10.48 24.8,9.52 25.2,10.48 25.6,9.52 26,10.48 26.4,9.52 26.8,10.48 27.2,9.52 27.6,10.48 28,9.52 28.4,10.48 28.8,9.52 29.2,10.48 29.6,9.52 30,10.48 30.4,9.52 30.8,10.48 31.2,9.52 31.6,10.48 32,9.52 32.4,10.48 32.8,9.52 33.2,10.48 33.6,9.52 34,10.48 34.4,9.52 34.8,10.48 35.2,9.52 35.6,10.48 36,9.52 36.4,10.48 36.8,9.52 37.2,10.48 37.6,9.52 38,10.48 38.4,9.52 38.8,10.48 39.2,9.52 39.6,10.48 40,9.52 40.4,10.48 40.8,9.52 41.2,10.48 41.6,9.52 42,10.48 42.4,9.52 42.8,10.48 43.2,9.52 43.6,10.48 44,9.52 44.4,10.48 44.8,9.52 45.2,10.48 45.6,9.52 46,10.48 46.4,9.52 46.8,10.48 47.2,9.52 47.6,10.48 48,9.52 48.4,10.48 48.8,9.52 49.2,10.48 49.6,9.52 50,10.48 50.4,9.52 50.8,10.48 51.2,9.52 51.6,10.48 52,9.52 52.4,10.48 52.8,9.52 53.2,10.48 53.6,9.52 54,10.48 54.4,9.52 54.8,10.48 55.2,9.52 55.6,10.48 56,9.52 56.4,10.48 56.8,9.52 57.2,10.48 57.6,9.52 58,10.48 58.4,9.52 58.8,10.48 59.2,9.52 59.6,10.48 60,9.52 60.4,10.48 60.8,9.52 61.2,10.48 61.6,9.52 62,10.48 62.4,9.52 62.8,10.48 63.2,9.52 63.6,10.48 64,9.52 64.4,10.48 64.8,9.52 65.2,10.48 65.6,9.52 66,10.48 66.4,9.52 66.8,10.48 67.2,9.52 67.6,10.48 68,9.52 68.4,10.48 68.8,9.52 69.2,10.48 69.6,9.52 70,10.48 70.4,9.52 70.8,10.48 71.2,9.52 71.6,10.48 72,9.52 72.4,10.48 72.8,9.52 73.2,10.48 73.6,9.52 74,10.48 74.4,9.52 74.8,10.48 75.2,9.52 75.6,10.48 76,9.52 76.4,10.48 76.8,9.52 77.2,10.48 77.6,9.52 78,10.48 78.4,9.52 78.8,10.48 79.2,9.52 79.6,10.48 80,9.52 80.4,10.48 80.8,9.52 81.2,10.48 81.6,9.52 82,10.48 82.4,9.52 82.8,10.48 83.2,9.52 83.6,10.48 84,9.52 84.4,10.48 84.8,9.52 85.2,10.48 85.6,9.52 86,10.48 86.4,9.52 86.8,10.48 87.2,9.52 87.6,10.48 88,9.52 88.4,10.48 88.8,9.52 89.2,10.48 89.6,9.52 90,10.48 90.4,9.52 90.8,10.48 91.2,9.52 91.6,10.48 92,9.52 92.4,10.48 92.8,9.52 93.2,10.48 93.6,9.52 94,10.48 94.4,9.52 94.8,10.48 95.2,9.52 95.6,10.48 96,9.52 96.4,10.48 96.8,9.52 97.2,10.48 97.6,9.52 98,10.48 98.4,9.52 98.8,10.48 99.2,9.52 99.6,10.48 100,9.52 100.4,10.48 100.8,9.52 101.2,10.48 101.6,9.52 102,10.48 102.4,9.52 102.8,10.48 103.2,9.52 103.6,10.48 104,9.52 104.4,10.48 104.8,9.52 105.2,10.48 105.6,9.52 106,10.48 106.4,9.52 106.8,10.48 107.2,9.52 107.6,10.48 108,9.52 108.4,10.48 108.8,9.52 109.2,10.48 109.6,9.52 110,10.48 110.4,9.52 110.8,10.48 111.2,9.52 111.6,10.48 112,9.52 112.4,10.48 112.8,9.52 113.2,10.48 113.6,9.52 114,10.48 114.4,9.52 114.8,10.48 115.2,9.52 115.6,10.48 116,9.52 116.4,10.48 116.8,9.52 117.2,10.48 117.6,9.52 118,10.48 118.4,9.52 118.8,10.48 119.2,9.52 119.6,10.48 120,9.52 120.4,10.48 120.8,9.52 121.2,10.48 121.6,9.52 122,10.48 122.4,9.52 122.8,10.48 123.2,9.52 123.6,10.48 124,9.52 124.4,10.48 124.8,9.52 125.2,10.48 125.6,9.52 126,10.48 126.4,9.52 126.8,10.48 127.2,9.52 127.6,10.48 128,9.52 128.4,10.48 128.8,9.52 129.2,10.48 129.6,9.52 130,10.48 130.4,9.52 130.8,10.48 131.2,9.52 131.6,10.48 132,9.52 132.4,10.48 132.8,9.52 133.2,10.48 133.6,9.52 134,10.48 134.4,9.52 134.8,10.48 135.2,9.52 135.6,10.48 136,9.52 136.4,10.48 136.8,9.52 137.2,10.48 137.6,9.52 138,10.48 138.4,9.52 138.8,10.48 139.2,9.52 139.6,10.48 140,9.52 140.4,10.48 140.8,9.52 141.2,10.48 141.6,9.52 142,10.48 142.4,9.52 142.8,10.48 143.2,9.52 143.6,10.48 144,9.52 144.4,10.48 144.8,9.52 145.2,10.48 145.6,9.52 146,10.48 146.4,9.52 146.8,10.48 147.2,9.52 147.6,10.48 148,9.52 148.4,10.48 148.8,9.52 149.2,10.48 149.6,9.52 150,10.48 150.4,9.52 150.8,10.48 151.2,9.52 151.6,10.48 152,9.52 152.4,10.48 152.8,9.52 153.2,10.48 153.6,9.52 154,10.48 154.4,9.52 154.8,10.48 155.2,9.52 155.6,10.48 156,9.52 156.4,10.48 156.8,9.52 157.2,10.48 157.6,9.52 158,10.48 158.4,9.52 158.8,10.48 159.2,9.52 159.6,10.48 160,9.52 160.4,10.48 160.8,9.52 161.2,10.48 161.6,9.52 162,10.48 162.4,9.52 162.8,10.48 163.2,9.52 163.6,10.48 164,9.52 164.4,10.48 164.8,9.52 165.2,10.48 165.6,9.52 166,10.48 166.4,9.52 166.8,10.48 167.2,9.52 167.6,10.48 168,9.52 168.4,10.48 168.8,9.52 169.2,10.48 169.6,9.52 170,10.48 170.4,9.52 170.8,10.48 171.2,9.52 171.6,10.48 172,9.52 172.4,10.48 172.8,9.52 173.2,10.48 173.6,9.52 174,10.48 174.4,9.52 174.8,10.48 175.2,9.52 175.6,10.48 176,9.52 176.4,10.48 176.8,9.52 177.2,10.48 177.6,9.52 178,10.48 178.4,9.52 178.8,10.48 179.2,9.52 179.6,10.48 180,9.52" stroke="#3333ff" stroke-width="2" fill="none" /></svg>