<svg xmlns="http://www.w3.org/2000/svg" viewBox="0 0 200 20"><line x1="20" y1="6.8" x2="180" y2="6.8" stroke="#000000" stroke-width="2" /><line x1="20" y1="10" x2="180" y2="10" stroke="#000000" stroke-width="2" /><line x1="20" y1="13.2" x2="180" y2="13.2" stroke="#000000" stroke-width="2" /><polyline points="20.8,9.44 21.68,10.56 22.56,9.44 23.44,10.56 24.32,9.44 25.2,10.56 26.08,9.44 26.96,10.56 27.84,9.44 28.72,10.56 29.6,9.44 30.48,10.56 31.36,9.44 32.24,10.56 33.12,9.44 34,10.56 34.88,9.44 35.76,10.56 36.64,9.44 37.52,10.56 38.4,9.44 39.28,10.56 40.16,9.44 41.04,10.56 41.92,9.44 42.8,10.56 43.68,9.44 44.56,10.56 45.44,9.44 46.32,10.56 47.2,9.44 48.08,10.56 48.96,9.44 49.84,10.56 50.72,9.44 51.6,10.56 52.48,9.44 53.36,10.56 54.24,9.44 55.12,10.56 56,9.44 56.88,10.56 57.76,9.44 58.64,10.56 59.52,9.44 60.4,10.56 61.28,9.44 62.16,10.56 63.04,9.44 63.92,10.56 64.8,9.44 65.68,10.56 66.56,9.44 67.44,10.56 68.32,9.44 69.2,10.56 70.08,9.44 70.96,10.56 71.84,9.44 72.72,10.56 73.6,9.44 74.48,10.56 75.36,9.44 76.24,10.56 77.12,9.44 78,10.56 78.88,9.44 79.76,10.56 80.64,9.44 81.52,10.56 82.4,9.44 83.28,10.56 84.16,9.44 85.04,10.56 85.92,9.44 86.8,10.56 87.68,9.44 88.56,10.56 89.44,9.44 90.32,10.56 91.2,9.44 92.08,10.56 92.96,9.44 93.84,10.56 94.72,9.44 95.6,10.56 96.48,9.44 97.36,10.56 98.24,9.44 99.12,10.56 100,9.44 100.88,10.56 101.76,9.44 102.64,10.56 103.52,9.44 104.4,10.56 105.28,9.44 106.16,10.56 107.04,9.44 107.92,10.56 108.8,9.44 109.68,10.56 110.56,9.44 111.44,10.56 112.32,9.44 113.2,10.56 114.08,9.44 114.96,10.56 115.84,9.44 116.72,10.56 117.6,9.44 118.48,10.56 119.36,9.44 120.24,10.56 121.12,9.44 122,10.56 122.88,9.44 123.76,10.56 124.64,9.44 125.52,10.56 126.4,9.44 127.28,10.56 128.16,9.44 129.04,10.56 129.92,9.44 130.8,10.56 131.68,9.44 132.56,10.56 133.44,9.44 134.32,10.56 135.2,9.44 136.08,10.56 136.96,9.44 137.84,10.56 138.72,9.44 139.6,10.56 140.48,9.44 141.36,10.56 142.24,9.44 143.12,10.56 144,9.44 144.88,10.56 145.76,9.44 146.64,10.56 147.52,9.44 148.4,10.56 149.28,9.44 150.16,10.56 151.04,9.44 151.92,10.56 152.8,9.44 153.68,10.56 154.56,9.44 155.44,10.56 156.32,9.44 157.2,10.56 158.08,9.44 158.96,10.56 159.84,9.44 160.72,10.56 161.6,9.44 162.48,10.56 163.36,9.44 164.24,10.56 165.12,9.44 166,10.56 166.88,9.44 167.76,10.56 168.64,9.44 169.52,10.56 170.4,9.44 171.28,10.56 172.16,9.44 173.04,10.56 173.92,9.44 174.8,10.56 175.68,9.44 176.56,10.56 177.44,9.44 178.32,10.56 179.2,9.44" stroke="#d90f27" stroke-width="2" fill="none" /></svg>