<svg xmlns="http://www.w3.org/2000/svg" viewBox="0 0 200 20"><polyline points="20.48,9.44 21.04,10.56 21.6,9.44 22.16,10.56 22.72,9.44 23.28,10.56 23.84,9.44 24.4,10.56 24.96,9.44 25.52,10.56 26.08,9.44 26.64,10.56 27.2,9.44 27.76,10.56 28.32,9.44 28.88,10.56 29.44,9.44 30,10.56 30.56,9.44 31.12,10.56 31.68,9.44 32.24,10.56 32.8,9.44 33.36,10.56 33.92,9.44 34.48,10.56 35.04,9.44 35.6,10.56 36.16,9.44 36.72,10.56 37.28,9.44 37.84,10.56 38.4,9.44 38.96,10.56 39.52,9.44 40.08,10.56 40.64,9.44 41.2,10.56 41.76,9.44 42.32,10.56 42.88,9.44 43.44,10.56 44,9.44 44.56,10.56 45.12,9.44 45.68,10.56 46.24,9.44 46.8,10.56 47.36,9.44 47.92,10.56 48.48,9.44 49.04,10.56 49.6,9.44 50.16,10.56 50.72,9.44 51.28,10.56 51.84,9.44 52.4,10.56 52.96,9.44 53.52,10.56 54.08,9.44 54.64,10.56 55.2,9.44 55.76,10.56 56.32,9.44 56.88,10.56 57.44,9.44 58,10.56 58.56,9.44 59.12,10.56 59.68,9.44 60.24,10.56 60.8,9.44 61.36,10.56 61.92,9.44 62.48,10.56 63.04,9.44 63.6,10.56 64.16,9.44 64.72,10.56 65.28,9.44 65.84,10.56 66.4,9.44 66.96,10.56 67.52,9.44 68.08,10.56 68.64,9.44 69.2,10.56 69.76,9.44 70.32,10.56 70.88,9.44 71.44,10.56 72,9.44 72.56,10.56 73.12,9.44 73.68,10.56 74.24,9.44 74.8,10.56 75.36,9.44 75.92,10.56 76.48,9.44 77.04,10.56 77.6,9.44 78.16,10.56 78.72,9.44 79.28,10.56 79.84,9.44 80.4,10.56 80.96,9.44 81.52,10.56 82.08,9.44 82.64,10.56 83.2,9.44 83.76,10.56 84.32,9.44 84.88,10.56 85.44,9.44 86,10.56 86.56,9.44 87.12,10.56 87.68,9.44 88.24,10.56 88.8,9.44 89.36,10.56 89.92,9.44 90.48,10.56 91.04,9.44 91.6,10.56 92.16,9.44 92.72,10.56 93.28,9.44 93.84,10.56 94.4,9.44 94.96,10.56 95.52,9.44 96.08,10.56 96.64,9.44 97.2,10.56 97.76,9.44 98.32,10.56 98.88,9.44 99.44,10.56 100,9.44 100.56,10.56 101.12,9.44 101.68,10.56 102.24,9.44 102.8,10.56 103.36,9.44 103.92,10.56 104.48,9.44 105.04,10.56 105.6,9.44 106.16,10.56 106.72,9.44 107.28,10.56 107.84,9.44 108.4,10.56 108.96,9.44 109.52,10.56 110.08,9.44 110.64,10.56 111.2,9.44 111.76,10.56 112.32,9.44 112.88,10.56 113.44,9.44 114,10.56 114.56,9.44 115.12,10.56 115.68,9.44 116.24,10.56 116.8,9.44 117.36,10.56 117.92,9.44 118.48,10.56 119.04,9.44 119.6,10.56 120.16,9.44 120.72,10.56 121.28,9.44 121.84,10.56 122.4,9.44 122.96,10.56 123.52,9.44 124.08,10.56 124.64,9.44 125.2,10.56 125.76,9.44 126.32,10.56 126.88,9.44 127.44,10.56 128,9.44 128.56,10.56 129.12,9.44 129.68,10.56 130.24,9.44 130.8,10.56 131.36,9.44 131.92,10.56 132.48,9.44 133.04,10.56 133.6,9.44 134.16,10.56 134.72,9.44 135.28,10.56 135.84,9.44 136.4,10.56 136.96,9.44 137.52,10.56 138.08,9.44 138.64,10.56 139.2,9.44 139.76,10.56 140.32,9.44 140.88,10.56 141.44,9.44 142,10.56 142.56,9.44 143.12,10.56 143.68,9.44 144.24,10.56 144.8,9.44 145.36,10.56 145.92,9.44 146.48,10.56 147.04,9.44 147.6,10.56 148.16,9.44 148.72,10.56 149.28,9.44 149.84,10.56 150.4,9.44 150.96,10.56 151.52,9.44 152.08,10.56 152.64,9.44 153.2,10.56 153.76,9.44 154.32,10.56 154.88,9.44 155.44,10.56 156,9.44 156.56,10.56 157.12,9.44 157.68,10.56 158.24,9.44 158.8,10.56 159.36,9.44 159.92,10.56 160.48,9.44 161.04,10.56 161.6,9.44 162.16,10.56 162.72,9.44 163.28,10.56 163.84,9.44 164.4,10.56 164.96,9.44 165.52,10.56 166.08,9.44 166.64,10.56 167.2,9.44 167.76,10.56 168.32,9.44 168.88,10.56 169.44,9.44 170,10.56 170.56,9.44 171.12,10.56 171.68,9.44 172.24,10.56 172.8,9.44 173.36,10.56 173.92,9.44 174.48,10.56 175.04,9.44 175.6,10.56 176.16,9.44 176.72,10.56 177.28,9.44 177.84,10.56 178.4,9.44 178.96,10.56 179.52,9.44" stroke="#d90f27" stroke-width="2" fill="none" /></svg>