<svg xmlns="http://www.w3.org/2000/svg" viewBox="0 0 200 20"><line x1="20" y1="7.6" x2="180" y2="7.6" stroke="#699d59" stroke-width="2" /><line x1="20" y1="12.4" x2="180" y2="12.4" stroke="#699d59" stroke-width="2" /><line x1="100" y1="4.4" x2="100" y2="15.6" stroke="#699d59" stroke-width="2" /><line x1="94.4" y1="4.4" x2="94.4" y2="15.6" stroke="#699d59" stroke-width="2" /><line x1="105.6" y1="4.4" x2="105.6" y2="15.6" stroke="#699d59" stroke-width="2" /><line x1="88.8" y1="4.4" x2="88.8" y2="15.6" stroke="#699d59" stroke-width="2" /><line x1="111.2" y1="4.4" x2="111.2" y2="15.6" stroke="#699d59" stroke-width="2" /><line x1="83.2" y1="4.4" x2="83.2" y2="15.6" stroke="#699d59" stroke-width="2" /><line x1="116.8" y1="4.4" x2="116.8" y2="15.6" stroke="#699d59" stroke-width="2" /><line x1="77.6" y1="4.4" x2="77.6" y2="15.6" stroke="#699d59" stroke-width="2" /><line x1="122.4" y1="4.4" x2="122.4" y2="15.6" stroke="#699d59" stroke-width="2" /><line x1="72" y1="4.4" x2="72" y2="15.6" stroke="#699d59" stroke-width="2" /><line x1="128" y1="4.4" x2="128" y2="15.6" stroke="#699d59" stroke-width="2" /><line x1="66.4" y1="4.4" x2="66.4" y2="15.6" stroke="#699d59" stroke-width="2" /><line x1="133.6" y1="4.4" x2="133.6" y2="15.6" stroke="#699d59" stroke-width="2" /><line x1="60.8" y1="4.4" x2="60.8" y2="15.6" stroke="#699d59" stroke-width="2" /><line x1="139.2" y1="4.4" x2="139.2" y2="15.6" stroke="#699d59" stroke-width="2" /><line x1="55.2" y1="4.4" x2="55.2" y2="15.6" stroke="#699d59" stroke-width="2" /><line x1="144.8" y1="4.4" x2="144.8" y2="15.6" stroke="#699d59" stroke-width="2" /><line x1="49.6" y1="4.4" x2="49.6" y2="15.6" stroke="#699d59" stroke-width="2" /><line x1="150.4" y1="4.4" x2="150.4" y2="15.6" stroke="#699d59" stroke-width="2" /><line x1="44" y1="4.4" x2="44" y2="15.6" stroke="#699d59" stroke-width="2" /><line x1="156" y1="4.4" x2="156" y2="15.6" stroke="#699d59" stroke-width="2" /><line x1="38.4" y1="4.4" x2="38.4" y2="15.6" stroke="#699d59" stroke-width="2" /><line x1="161.6" y1="4.4" x2="161.6" y2="15.6" stroke="#699d59" stroke-width="2" /><line x1="32.8" y1="4.4" x2="32.8" y2="15.6" stroke="#699d59" stroke-width="2" /><line x1="167.2" y1="4.4" x2="167.2" y2="15.6" stroke="#699d59" stroke-width="2" /><line x1="27.2" y1="4.4" x2="27.2" y2="15.6" stroke="#699d59" stroke-width="2" /><line x1="172.8" y1="4.4" x2="172.8" y2="15.6" stroke="#699d59" stroke-width="2" /><line x1="21.6" y1="4.4" x2="21.6" y2="15.6" stroke="#699d59" stroke-width="2" /><line x1="178.4" y1="4.4" x2="178.4" y2="15.6" stroke="#699d59" stroke-width="2" /></svg>