<svg xmlns="http://www.w3.org/2000/svg" viewBox="0 0 200 20"><line x1="20" y1="6.8" x2="180" y2="6.8" stroke="#000000" stroke-width="2" /><line x1="20" y1="13.2" x2="180" y2="13.2" stroke="#000000" stroke-width="2" /><polyline points="20.48,9.2 21.04,10.8 21.6,9.2 22.16,10.8 22.72,9.2 23.28,10.8 23.84,9.2 24.4,10.8 24.96,9.2 25.52,10.8 26.08,9.2 26.64,10.8 27.2,9.2 27.76,10.8 28.32,9.2 28.88,10.8 29.44,9.2 30,10.8 30.56,9.2 31.12,10.8 31.68,9.2 32.24,10.8 32.8,9.2 33.36,10.8 33.92,9.2 34.48,10.8 35.04,9.2 35.6,10.8 36.16,9.2 36.72,10.8 37.28,9.2 37.84,10.8 38.4,9.2 38.96,10.8 39.52,9.2 40.08,10.8 40.64,9.2 41.2,10.8 41.76,9.2 42.32,10.8 42.88,9.2 43.44,10.8 44,9.2 44.56,10.8 45.12,9.2 45.68,10.8 46.24,9.2 46.8,10.8 47.36,9.2 47.92,10.8 48.48,9.2 49.04,10.8 49.6,9.2 50.16,10.8 50.72,9.2 51.28,10.8 51.84,9.2 52.4,10.8 52.96,9.2 53.52,10.8 54.08,9.2 54.64,10.8 55.2,9.2 55.76,10.8 56.32,9.2 56.88,10.8 57.44,9.2 58,10.8 58.56,9.2 59.12,10.8 59.68,9.2 60.24,10.8 60.8,9.2 61.36,10.8 61.92,9.2 62.48,10.8 63.04,9.2 63.6,10.8 64.16,9.2 64.72,10.8 65.28,9.2 65.84,10.8 66.4,9.2 66.96,10.8 67.52,9.2 68.08,10.8 68.64,9.2 69.2,10.8 69.76,9.2 70.32,10.8 70.88,9.2 71.44,10.8 72,9.2 72.56,10.8 73.12,9.2 73.68,10.8 74.24,9.2 74.8,10.8 75.36,9.2 75.92,10.8 76.48,9.2 77.04,10.8 77.6,9.2 78.16,10.8 78.72,9.2 79.28,10.8 79.84,9.2 80.4,10.8 80.96,9.2 81.52,10.8 82.08,9.2 82.64,10.8 83.2,9.2 83.76,10.8 84.32,9.2 84.88,10.8 85.44,9.2 86,10.8 86.56,9.2 87.12,10.8 87.68,9.2 88.24,10.8 88.8,9.2 89.36,10.8 89.92,9.2 90.48,10.8 91.04,9.2 91.6,10.8 92.16,9.2 92.72,10.8 93.28,9.2 93.84,10.8 94.4,9.2 94.96,10.8 95.52,9.2 96.08,10.8 96.64,9.2 97.2,10.8 97.76,9.2 98.32,10.8 98.88,9.2 99.44,10.8 100,9.2 100.56,10.8 101.12,9.2 101.68,10.8 102.24,9.2 102.8,10.8 103.36,9.2 103.92,10.8 104.48,9.2 105.04,10.8 105.6,9.2 106.16,10.8 106.72,9.2 107.28,10.8 107.84,9.2 108.4,10.8 108.96,9.2 109.52,10.8 110.08,9.2 110.64,10.8 111.2,9.2 111.76,10.8 112.32,9.2 112.88,10.8 113.44,9.2 114,10.8 114.56,9.2 115.12,10.8 115.68,9.2 116.24,10.8 116.8,9.2 117.36,10.8 117.92,9.2 118.48,10.8 119.04,9.2 119.6,10.8 120.16,9.2 120.72,10.8 121.28,9.2 121.84,10.8 122.4,9.2 122.96,10.8 123.52,9.2 124.08,10.8 124.64,9.2 125.2,10.8 125.76,9.2 126.32,10.8 126.88,9.2 127.44,10.8 128,9.2 128.56,10.8 129.12,9.2 129.68,10.8 130.24,9.2 130.8,10.8 131.36,9.2 131.92,10.8 132.48,9.2 133.04,10.8 133.6,9.2 134.16,10.8 134.72,9.2 135.28,10.8 135.84,9.2 136.4,10.8 136.96,9.2 137.52,10.8 138.08,9.2 138.64,10.8 139.2,9.2 139.76,10.8 140.32,9.2 140.88,10.8 141.44,9.2 142,10.8 142.56,9.2 143.12,10.8 143.68,9.2 144.24,10.8 144.8,9.2 145.36,10.8 145.92,9.2 146.48,10.8 147.04,9.2 147.6,10.8 148.16,9.2 148.72,10.8 149.28,9.2 149.84,10.8 150.4,9.2 150.96,10.8 151.52,9.2 152.08,10.8 152.64,9.2 153.2,10.8 153.76,9.2 154.32,10.8 154.88,9.2 155.44,10.8 156,9.2 156.56,10.8 157.12,9.2 157.68,10.8 158.24,9.2 158.8,10.8 159.36,9.2 159.92,10.8 160.48,9.2 161.04,10.8 161.6,9.2 162.16,10.8 162.72,9.2 163.28,10.8 163.84,9.2 164.4,10.8 164.96,9.2 165.52,10.8 166.08,9.2 166.64,10.8 167.2,9.2 167.76,10.8 168.32,9.2 168.88,10.8 169.44,9.2 170,10.8 170.56,9.2 171.12,10.8 171.68,9.2 172.24,10.8 172.8,9.2 173.36,10.8 173.92,9.2 174.48,10.8 175.04,9.2 175.6,10.8 176.16,9.2 176.72,10.8 177.28,9.2 177.84,10.8 178.4,9.2 178.96,10.8 179.52,9.2" stroke="#d90f27" stroke-width="2" fill="none" /></svg>