<svg xmlns="http://www.w3.org/2000/svg" viewBox="0 0 200 20"><line x1="20" y1="10" x2="180" y2="10" stroke="#000000" stroke-width="2" stroke-dasharray="10,2" /><polyline points="20.8,9.36 21.68,10.64 22.56,9.36 23.44,10.64 24.32,9.36 25.2,10.64 26.08,9.36 26.96,10.64 27.84,9.36 28.72,10.64 29.6,9.36 30.48,10.64 31.36,9.36 32.24,10.64 33.12,9.36 34,10.64 34.88,9.36 35.76,10.64 36.64,9.36 37.52,10.64 38.4,9.36 39.28,10.64 40.16,9.36 41.04,10.64 41.92,9.36 42.8,10.64 43.68,9.36 44.56,10.64 45.44,9.36 46.32,10.64 47.2,9.36 48.08,10.64 48.96,9.36 49.84,10.64 50.72,9.36 51.6,10.64 52.48,9.36 53.36,10.64 54.24,9.36 55.12,10.64 56,9.36 56.88,10.64 57.76,9.36 58.64,10.64 59.52,9.36 60.4,10.64 61.28,9.36 62.16,10.64 63.04,9.36 63.92,10.64 64.8,9.36 65.68,10.64 66.56,9.36 67.44,10.64 68.32,9.36 69.2,10.64 70.08,9.36 70.96,10.64 71.84,9.36 72.72,10.64 73.6,9.36 74.48,10.64 75.36,9.36 76.24,10.64 77.12,9.36 78,10.64 78.88,9.36 79.76,10.64 80.64,9.36 81.52,10.64 82.4,9.36 83.28,10.64 84.16,9.36 85.04,10.64 85.92,9.36 86.8,10.64 87.68,9.36 88.56,10.64 89.44,9.36 90.32,10.64 91.2,9.36 92.08,10.64 92.96,9.36 93.84,10.64 94.72,9.36 95.6,10.64 96.48,9.36 97.36,10.64 98.24,9.36 99.12,10.64 100,9.36 100.88,10.64 101.76,9.36 102.64,10.64 103.52,9.36 104.4,10.64 105.28,9.36 106.16,10.64 107.04,9.36 107.92,10.64 108.8,9.36 109.68,10.64 110.56,9.36 111.44,10.64 112.32,9.36 113.2,10.64 114.08,9.36 114.96,10.64 115.84,9.36 116.72,10.64 117.6,9.36 118.48,10.64 119.36,9.36 120.24,10.64 121.12,9.36 122,10.64 122.88,9.36 123.76,10.64 124.64,9.36 125.52,10.64 126.4,9.36 127.28,10.64 128.16,9.36 129.04,10.64 129.92,9.36 130.8,10.64 131.68,9.36 132.56,10.64 133.44,9.36 134.32,10.64 135.2,9.36 136.08,10.64 136.96,9.36 137.84,10.64 138.72,9.36 139.6,10.64 140.48,9.36 141.36,10.64 142.24,9.36 143.12,10.64 144,9.36 144.88,10.64 145.76,9.36 146.64,10.64 147.52,9.36 148.4,10.64 149.28,9.36 150.16,10.64 151.04,9.36 151.92,10.64 152.8,9.36 153.68,10.64 154.56,9.36 155.44,10.64 156.32,9.36 157.2,10.64 158.08,9.36 158.96,10.64 159.84,9.36 160.72,10.64 161.6,9.36 162.48,10.64 163.36,9.36 164.24,10.64 165.12,9.36 166,10.64 166.88,9.36 167.76,10.64 168.64,9.36 169.52,10.64 170.4,9.36 171.28,10.64 172.16,9.36 173.04,10.64 173.92,9.36 174.8,10.64 175.68,9.36 176.56,10.64 177.44,9.36 178.32,10.64 179.2,9.36" stroke="#d90f27" stroke-width="2" fill="none" /></svg>