<svg xmlns="http://www.w3.org/2000/svg" viewBox="0 0 200 20"><polyline points="20.08,6.96 20.32,6.64 20.56,6.96 20.8,6.64 21.04,6.96 21.28,6.64 21.52,6.96 21.76,6.64 22,6.96 22.24,6.64 22.48,6.96 22.72,6.64 22.96,6.96 23.2,6.64 23.44,6.96 23.68,6.64 23.92,6.96 24.16,6.64 24.4,6.96 24.64,6.64 24.88,6.96 25.12,6.64 25.36,6.96 25.6,6.64 25.84,6.96 26.08,6.64 26.32,6.96 26.56,6.64 26.8,6.96 27.04,6.64 27.28,6.96 27.52,6.64 27.76,6.96 28,6.64 28.24,6.96 28.48,6.64 28.72,6.96 28.96,6.64 29.2,6.96 29.44,6.64 29.68,6.96 29.92,6.64 30.16,6.96 30.4,6.64 30.64,6.96 30.88,6.64 31.12,6.96 31.36,6.64 31.6,6.96 31.84,6.64 32.08,6.96 32.32,6.64 32.56,6.96 32.8,6.64 33.04,6.96 33.28,6.64 33.52,6.96 33.76,6.64 34,6.96 34.24,6.64 34.48,6.96 34.72,6.64 34.96,6.96 35.2,6.64 35.44,6.96 35.68,6.64 35.92,6.96 36.16,6.64 36.4,6.96 36.64,6.64 36.88,6.96 37.12,6.64 37.36,6.96 37.6,6.64 37.84,6.96 38.08,6.64 38.32,6.96 38.56,6.64 38.8,6.96 39.04,6.64 39.28,6.96 39.52,6.64 39.76,6.96 40,6.64 40.24,6.96 40.48,6.64 40.72,6.96 40.96,6.64 41.2,6.96 41.44,6.64 41.68,6.96 41.92,6.64 42.16,6.96 42.4,6.64 42.64,6.96 42.88,6.64 43.12,6.96 43.36,6.64 43.6,6.96 43.84,6.64 44.08,6.96 44.32,6.64 44.56,6.96 44.8,6.64 45.04,6.96 45.28,6.64 45.52,6.96 45.76,6.64 46,6.96 46.24,6.64 46.48,6.96 46.72,6.64 46.96,6.96 47.2,6.64 47.44,6.96 47.68,6.64 47.92,6.96 48.16,6.64 48.4,6.96 48.64,6.64 48.88,6.96 49.12,6.64 49.36,6.96 49.6,6.64 49.84,6.96 50.08,6.64 50.32,6.96 50.56,6.64 50.8,6.96 51.04,6.64 51.28,6.96 51.52,6.64 51.76,6.96 52,6.64 52.24,6.96 52.48,6.64 52.72,6.96 52.96,6.64 53.2,6.96 53.44,6.64 53.68,6.96 53.92,6.64 54.16,6.96 54.4,6.64 54.64,6.96 54.88,6.64 55.12,6.96 55.36,6.64 55.6,6.96 55.84,6.64 56.08,6.96 56.32,6.64 56.56,6.96 56.8,6.64 57.04,6.96 57.28,6.64 57.52,6.96 57.76,6.64 58,6.96 58.24,6.64 58.48,6.96 58.72,6.64 58.96,6.96 59.2,6.64 59.44,6.96 59.68,6.64 59.92,6.96 60.16,6.64 60.4,6.96 60.64,6.64 60.88,6.96 61.12,6.64 61.36,6.96 61.6,6.64 61.84,6.96 62.08,6.64 62.32,6.96 62.56,6.64 62.8,6.96 63.04,6.64 63.28,6.96 63.52,6.64 63.76,6.96 64,6.64 64.24,6.96 64.48,6.64 64.72,6.96 64.96,6.64 65.2,6.96 65.44,6.64 65.68,6.96 65.92,6.64 66.16,6.96 66.4,6.64 66.64,6.96 66.88,6.64 67.12,6.96 67.36,6.64 67.6,6.96 67.84,6.64 68.08,6.96 68.32,6.64 68.56,6.96 68.8,6.64 69.04,6.96 69.28,6.64 69.52,6.96 69.76,6.64 70,6.96 70.24,6.64 70.48,6.96 70.72,6.64 70.96,6.96 71.2,6.64 71.44,6.96 71.68,6.64 71.92,6.96 72.16,6.64 72.4,6.96 72.64,6.64 72.88,6.96 73.12,6.64 73.36,6.96 73.6,6.64 73.84,6.96 74.08,6.64 74.32,6.96 74.56,6.64 74.8,6.96 75.04,6.64 75.28,6.96 75.52,6.64 75.76,6.96 76,6.64 76.24,6.96 76.48,6.64 76.72,6.96 76.96,6.64 77.2,6.96 77.44,6.64 77.68,6.96 77.92,6.64 78.16,6.96 78.4,6.64 78.64,6.96 78.88,6.64 79.12,6.96 79.36,6.64 79.6,6.96 79.84,6.64 80.08,6.96 80.32,6.64 80.56,6.96 80.8,6.64 81.04,6.96 81.28,6.64 81.52,6.96 81.76,6.64 82,6.96 82.24,6.64 82.48,6.96 82.72,6.64 82.96,6.96 83.2,6.64 83.44,6.96 83.68,6.64 83.92,6.96 84.16,6.64 84.4,6.96 84.64,6.64 84.88,6.96 85.12,6.64 85.36,6.96 85.6,6.64 85.84,6.96 86.08,6.64 86.32,6.96 86.56,6.64 86.8,6.96 87.04,6.64 87.28,6.96 87.52,6.64 87.76,6.96 88,6.64 88.24,6.96 88.48,6.64 88.72,6.96 88.96,6.64 89.2,6.96 89.44,6.64 89.68,6.96 89.92,6.64 90.16,6.96 90.4,6.64 90.64,6.96 90.88,6.64 91.12,6.96 91.36,6.64 91.6,6.96 91.84,6.64 92.08,6.96 92.32,6.64 92.56,6.96 92.8,6.64 93.04,6.96 93.28,6.64 93.52,6.96 93.76,6.64 94,6.96 94.24,6.64 94.48,6.96 94.72,6.64 94.96,6.96 95.2,6.64 95.44,6.96 95.68,6.64 95.92,6.96 96.16,6.64 96.4,6.96 96.64,6.64 96.88,6.96 97.12,6.64 97.36,6.96 97.6,6.64 97.84,6.96 98.08,6.64 98.32,6.96 98.56,6.64 98.8,6.96 99.04,6.64 99.28,6.96 99.52,6.64 99.76,6.96 100,6.64 100.24,6.96 100.48,6.64 100.72,6.96 100.96,6.64 101.2,6.96 101.44,6.64 101.68,6.96 101.92,6.64 102.16,6.96 102.4,6.64 102.64,6.96 102.88,6.64 103.12,6.96 103.36,6.64 103.6,6.96 103.84,6.64 104.08,6.96 104.32,6.64 104.56,6.96 104.8,6.64 105.04,6.96 105.28,6.64 105.52,6.96 105.76,6.64 106,6.96 106.24,6.64 106.48,6.96 106.72,6.64 106.96,6.96 107.2,6.64 107.44,6.96 107.68,6.64 107.92,6.96 108.16,6.64 108.4,6.96 108.64,6.64 108.88,6.96 109.12,6.64 109.36,6.96 109.6,6.64 109.84,6.96 110.08,6.64 110.32,6.96 110.56,6.64 110.8,6.96 111.04,6.64 111.28,6.96 111.52,6.64 111.76,6.96 112,6.64 112.24,6.96 112.48,6.64 112.72,6.96 112.96,6.64 113.2,6.96 113.44,6.64 113.68,6.96 113.92,6.64 114.16,6.96 114.4,6.64 114.64,6.96 114.88,6.64 115.12,6.96 115.36,6.64 115.6,6.96 115.84,6.64 116.08,6.96 116.32,6.64 116.56,6.96 116.8,6.64 117.04,6.96 117.28,6.64 117.52,6.96 117.76,6.64 118,6.96 118.24,6.64 118.48,6.96 118.72,6.64 118.96,6.96 119.2,6.64 119.44,6.96 119.68,6.64 119.92,6.96 120.16,6.64 120.4,6.96 120.64,6.64 120.88,6.96 121.12,6.64 121.36,6.96 121.6,6.64 121.84,6.96 122.08,6.64 122.32,6.96 122.56,6.64 122.8,6.96 123.04,6.64 123.28,6.96 123.52,6.64 123.76,6.96 124,6.64 124.24,6.96 124.48,6.64 124.72,6.96 124.96,6.64 125.2,6.96 125.44,6.64 125.68,6.96 125.92,6.64 126.16,6.96 126.4,6.64 126.64,6.96 126.88,6.64 127.12,6.96 127.36,6.64 127.6,6.96 127.84,6.64 128.08,6.96 128.32,6.64 128.56,6.96 128.8,6.64 129.04,6.96 129.28,6.64 129.52,6.96 129.76,6.64 130,6.96 130.24,6.64 130.48,6.96 130.72,6.64 130.96,6.96 131.2,6.64 131.44,6.96 131.68,6.64 131.92,6.96 132.16,6.64 132.4,6.96 132.64,6.64 132.88,6.96 133.12,6.64 133.36,6.96 133.6,6.64 133.84,6.96 134.08,6.64 134.32,6.96 134.56,6.64 134.8,6.96 135.04,6.64 135.28,6.96 135.52,6.64 135.76,6.96 136,6.64 136.24,6.96 136.48,6.64 136.72,6.96 136.96,6.64 137.2,6.96 137.44,6.64 137.68,6.96 137.92,6.64 138.16,6.96 138.4,6.64 138.64,6.96 138.88,6.64 139.12,6.96 139.36,6.64 139.6,6.96 139.84,6.64 140.08,6.96 140.32,6.64 140.56,6.96 140.8,6.64 141.04,6.96 141.28,6.64 141.52,6.96 141.76,6.64 142,6.96 142.24,6.64 142.48,6.96 142.72,6.64 142.96,6.96 143.2,6.64 143.44,6.96 143.68,6.64 143.92,6.96 144.16,6.64 144.4,6.96 144.64,6.64 144.88,6.96 145.12,6.64 145.36,6.96 145.6,6.64 145.84,6.96 146.08,6.64 146.32,6.96 146.56,6.64 146.8,6.96 147.04,6.64 147.28,6.96 147.52,6.64 147.76,6.96 148,6.64 148.24,6.96 148.48,6.64 148.72,6.96 148.96,6.64 149.2,6.96 149.44,6.64 149.68,6.96 149.92,6.64 150.16,6.96 150.4,6.64 150.64,6.96 150.88,6.64 151.12,6.96 151.36,6.64 151.6,6.96 151.84,6.64 152.08,6.96 152.32,6.64 152.56,6.96 152.8,6.64 153.04,6.96 153.28,6.64 153.52,6.96 153.76,6.64 154,6.96 154.24,6.64 154.48,6.96 154.72,6.64 154.96,6.96 155.2,6.64 155.44,6.96 155.68,6.64 155.92,6.96 156.16,6.64 156.4,6.96 156.64,6.64 156.88,6.96 157.12,6.64 157.36,6.96 157.6,6.64 157.84,6.96 158.08,6.64 158.32,6.96 158.56,6.64 158.8,6.96 159.04,6.64 159.28,6.96 159.52,6.64 159.76,6.96 160,6.64 160.24,6.96 160.48,6.64 160.72,6.96 160.96,6.64 161.2,6.96 161.44,6.64 161.68,6.96 161.92,6.64 162.16,6.96 162.4,6.64 162.64,6.96 162.88,6.64 163.12,6.96 163.36,6.64 163.6,6.96 163.84,6.64 164.08,6.96 164.32,6.64 164.56,6.96 164.8,6.64 165.04,6.96 165.28,6.64 165.52,6.96 165.76,6.64 166,6.96 166.24,6.64 166.48,6.96 166.72,6.64 166.96,6.96 167.2,6.64 167.44,6.96 167.68,6.64 167.92,6.96 168.16,6.64 168.4,6.96 168.64,6.64 168.88,6.96 169.12,6.64 169.36,6.96 169.6,6.64 169.84,6.96 170.08,6.64 170.32,6.96 170.56,6.64 170.8,6.96 171.04,6.64 171.28,6.96 171.52,6.64 171.76,6.96 172,6.64 172.24,6.96 172.48,6.64 172.72,6.96 172.96,6.64 173.2,6.96 173.44,6.64 173.68,6.96 173.92,6.64 174.16,6.96 174.4,6.64 174.64,6.96 174.88,6.64 175.12,6.96 175.36,6.64 175.6,6.96 175.84,6.64 176.08,6.96 176.32,6.64 176.56,6.96 176.8,6.64 177.04,6.96 177.28,6.64 177.52,6.96 177.76,6.64 178,6.96 178.24,6.64 178.48,6.96 178.72,6.64 178.96,6.96 179.2,6.64 179.44,6.96 179.68,6.64 179.92,6.96" stroke="#3333ff" stroke-width="2" fill="none" /><polyline points="20.08,13.36 20.32,13.04 20.56,13.36 20.8,13.04 21.04,13.36 21.28,13.04 21.52,13.36 21.76,13.04 22,13.36 22.24,13.04 22.48,13.36 22.72,13.04 22.96,13.36 23.2,13.04 23.44,13.36 23.68,13.04 23.92,13.36 24.16,13.04 24.4,13.36 24.64,13.04 24.88,13.36 25.12,13.04 25.36,13.36 25.6,13.04 25.84,13.36 26.08,13.04 26.32,13.36 26.56,13.04 26.8,13.36 27.04,13.04 27.28,13.36 27.52,13.04 27.76,13.36 28,13.04 28.24,13.36 28.48,13.04 28.72,13.36 28.96,13.04 29.2,13.36 29.44,13.04 29.68,13.36 29.92,13.04 30.16,13.36 30.4,13.04 30.64,13.36 30.88,13.04 31.12,13.36 31.36,13.04 31.6,13.36 31.84,13.04 32.08,13.36 32.32,13.04 32.56,13.36 32.8,13.04 33.04,13.36 33.28,13.04 33.52,13.36 33.76,13.04 34,13.36 34.24,13.04 34.48,13.36 34.72,13.04 34.96,13.36 35.2,13.04 35.44,13.36 35.68,13.04 35.92,13.36 36.16,13.04 36.4,13.36 36.64,13.04 36.88,13.36 37.12,13.04 37.36,13.36 37.6,13.04 37.84,13.36 38.08,13.04 38.32,13.36 38.56,13.04 38.8,13.36 39.04,13.04 39.28,13.36 39.52,13.04 39.76,13.36 40,13.04 40.24,13.36 40.48,13.04 40.72,13.36 40.96,13.04 41.2,13.36 41.44,13.04 41.68,13.36 41.92,13.04 42.16,13.36 42.4,13.04 42.64,13.36 42.88,13.04 43.12,13.36 43.36,13.04 43.6,13.36 43.84,13.04 44.08,13.36 44.32,13.04 44.56,13.36 44.8,13.04 45.04,13.36 45.28,13.04 45.52,13.36 45.76,13.04 46,13.36 46.24,13.04 46.48,13.36 46.72,13.04 46.96,13.36 47.2,13.04 47.44,13.36 47.68,13.04 47.92,13.36 48.16,13.04 48.4,13.36 48.64,13.04 48.88,13.36 49.12,13.04 49.36,13.36 49.6,13.04 49.84,13.36 50.08,13.04 50.32,13.36 50.56,13.04 50.8,13.36 51.04,13.04 51.28,13.36 51.52,13.04 51.76,13.36 52,13.04 52.24,13.36 52.48,13.04 52.72,13.36 52.96,13.04 53.2,13.36 53.44,13.04 53.68,13.36 53.92,13.04 54.16,13.36 54.4,13.04 54.64,13.36 54.88,13.04 55.12,13.36 55.36,13.04 55.6,13.36 55.84,13.04 56.08,13.36 56.32,13.04 56.56,13.36 56.8,13.04 57.04,13.36 57.28,13.04 57.52,13.36 57.76,13.04 58,13.36 58.24,13.04 58.48,13.36 58.72,13.04 58.96,13.36 59.2,13.04 59.44,13.36 59.68,13.04 59.92,13.36 60.16,13.04 60.4,13.36 60.64,13.04 60.88,13.36 61.12,13.04 61.36,13.36 61.6,13.04 61.84,13.36 62.08,13.04 62.32,13.36 62.56,13.04 62.8,13.36 63.04,13.04 63.28,13.36 63.52,13.04 63.76,13.36 64,13.04 64.24,13.36 64.48,13.04 64.72,13.36 64.96,13.04 65.2,13.36 65.44,13.04 65.68,13.36 65.92,13.04 66.16,13.36 66.4,13.04 66.64,13.36 66.88,13.04 67.12,13.36 67.36,13.04 67.6,13.36 67.84,13.04 68.08,13.36 68.32,13.04 68.56,13.36 68.8,13.04 69.04,13.36 69.28,13.04 69.52,13.36 69.76,13.04 70,13.36 70.24,13.04 70.48,13.36 70.72,13.04 70.96,13.36 71.2,13.04 71.44,13.36 71.68,13.04 71.92,13.36 72.16,13.04 72.4,13.36 72.64,13.04 72.88,13.36 73.12,13.04 73.36,13.36 73.6,13.04 73.84,13.36 74.08,13.04 74.32,13.36 74.56,13.04 74.8,13.36 75.04,13.04 75.28,13.36 75.52,13.04 75.76,13.36 76,13.04 76.24,13.36 76.48,13.04 76.72,13.36 76.96,13.04 77.2,13.36 77.44,13.04 77.68,13.36 77.92,13.04 78.16,13.36 78.4,13.04 78.64,13.36 78.88,13.04 79.12,13.36 79.36,13.04 79.6,13.36 79.84,13.04 80.08,13.36 80.32,13.04 80.56,13.36 80.8,13.04 81.04,13.36 81.28,13.04 81.52,13.36 81.76,13.04 82,13.36 82.24,13.04 82.48,13.36 82.72,13.04 82.96,13.36 83.2,13.04 83.44,13.36 83.68,13.04 83.92,13.36 84.16,13.04 84.4,13.36 84.64,13.04 84.88,13.36 85.12,13.04 85.36,13.36 85.6,13.04 85.84,13.36 86.08,13.04 86.32,13.36 86.56,13.04 86.8,13.36 87.04,13.04 87.28,13.36 87.52,13.04 87.76,13.36 88,13.04 88.24,13.36 88.48,13.04 88.72,13.36 88.96,13.04 89.2,13.36 89.44,13.04 89.68,13.36 89.92,13.04 90.16,13.36 90.4,13.04 90.64,13.36 90.88,13.04 91.12,13.36 91.36,13.04 91.6,13.36 91.84,13.04 92.08,13.36 92.32,13.04 92.56,13.36 92.8,13.04 93.04,13.36 93.28,13.04 93.52,13.36 93.76,13.04 94,13.36 94.24,13.04 94.48,13.36 94.72,13.04 94.96,13.36 95.2,13.04 95.44,13.36 95.68,13.04 95.92,13.36 96.16,13.04 96.4,13.36 96.64,13.04 96.88,13.36 97.12,13.04 97.36,13.36 97.6,13.04 97.84,13.36 98.08,13.04 98.32,13.36 98.56,13.04 98.8,13.36 99.04,13.04 99.28,13.36 99.52,13.04 99.76,13.36 100,13.04 100.24,13.36 100.48,13.04 100.72,13.36 100.96,13.04 101.2,13.36 101.44,13.04 101.68,13.36 101.92,13.04 102.16,13.36 102.4,13.04 102.64,13.36 102.88,13.04 103.12,13.36 103.36,13.04 103.6,13.36 103.84,13.04 104.08,13.36 104.32,13.04 104.56,13.36 104.8,13.04 105.04,13.36 105.28,13.04 105.52,13.36 105.76,13.04 106,13.36 106.24,13.04 106.48,13.36 106.72,13.04 106.96,13.36 107.2,13.04 107.44,13.36 107.68,13.04 107.92,13.36 108.16,13.04 108.4,13.36 108.64,13.04 108.88,13.36 109.12,13.04 109.36,13.36 109.6,13.04 109.84,13.36 110.08,13.04 110.32,13.36 110.56,13.04 110.8,13.36 111.04,13.04 111.28,13.36 111.52,13.04 111.76,13.36 112,13.04 112.24,13.36 112.48,13.04 112.72,13.36 112.96,13.04 113.2,13.36 113.44,13.04 113.68,13.36 113.92,13.04 114.16,13.36 114.4,13.04 114.64,13.36 114.88,13.04 115.12,13.36 115.36,13.04 115.6,13.36 115.84,13.04 116.08,13.36 116.32,13.04 116.56,13.36 116.8,13.04 117.04,13.36 117.28,13.04 117.52,13.36 117.76,13.04 118,13.36 118.24,13.04 118.48,13.36 118.72,13.04 118.96,13.36 119.2,13.04 119.44,13.36 119.68,13.04 119.92,13.36 120.16,13.04 120.4,13.36 120.64,13.04 120.88,13.36 121.12,13.04 121.36,13.36 121.6,13.04 121.84,13.36 122.08,13.04 122.32,13.36 122.56,13.04 122.8,13.36 123.04,13.04 123.28,13.36 123.52,13.04 123.76,13.36 124,13.04 124.24,13.36 124.48,13.04 124.72,13.36 124.96,13.04 125.2,13.36 125.44,13.04 125.68,13.36 125.92,13.04 126.16,13.36 126.4,13.04 126.64,13.36 126.88,13.04 127.12,13.36 127.36,13.04 127.6,13.36 127.84,13.04 128.08,13.36 128.32,13.04 128.56,13.36 128.8,13.04 129.04,13.36 129.28,13.04 129.52,13.36 129.76,13.04 130,13.36 130.24,13.04 130.48,13.36 130.72,13.04 130.96,13.36 131.2,13.04 131.44,13.36 131.68,13.04 131.92,13.36 132.16,13.04 132.4,13.36 132.64,13.04 132.88,13.36 133.12,13.04 133.36,13.36 133.6,13.04 133.84,13.36 134.08,13.04 134.32,13.36 134.56,13.04 134.8,13.36 135.04,13.04 135.28,13.36 135.52,13.04 135.76,13.36 136,13.04 136.24,13.36 136.48,13.04 136.72,13.36 136.96,13.04 137.2,13.36 137.44,13.04 137.68,13.36 137.92,13.04 138.16,13.36 138.4,13.04 138.64,13.36 138.88,13.04 139.12,13.36 139.36,13.04 139.6,13.36 139.84,13.04 140.08,13.36 140.32,13.04 140.56,13.36 140.8,13.04 141.04,13.36 141.28,13.04 141.52,13.36 141.76,13.04 142,13.36 142.24,13.04 142.48,13.36 142.72,13.04 142.96,13.36 143.2,13.04 143.44,13.36 143.68,13.04 143.92,13.36 144.16,13.04 144.4,13.36 144.64,13.04 144.88,13.36 145.12,13.04 145.36,13.36 145.6,13.04 145.84,13.36 146.08,13.04 146.32,13.36 146.56,13.04 146.8,13.36 147.04,13.04 147.28,13.36 147.52,13.04 147.76,13.36 148,13.04 148.24,13.36 148.48,13.04 148.72,13.36 148.96,13.04 149.2,13.36 149.44,13.04 149.68,13.36 149.92,13.04 150.16,13.36 150.4,13.04 150.64,13.36 150.88,13.04 151.12,13.36 151.36,13.04 151.6,13.36 151.84,13.04 152.08,13.36 152.32,13.04 152.56,13.36 152.8,13.04 153.04,13.36 153.28,13.04 153.52,13.36 153.76,13.04 154,13.36 154.24,13.04 154.48,13.36 154.72,13.04 154.96,13.36 155.2,13.04 155.44,13.36 155.68,13.04 155.92,13.36 156.16,13.04 156.4,13.36 156.64,13.04 156.88,13.36 157.12,13.04 157.36,13.36 157.6,13.04 157.84,13.36 158.08,13.04 158.32,13.36 158.56,13.04 158.8,13.36 159.04,13.04 159.28,13.36 159.52,13.04 159.76,13.36 160,13.04 160.24,13.36 160.48,13.04 160.72,13.36 160.96,13.04 161.2,13.36 161.44,13.04 161.68,13.36 161.92,13.04 162.16,13.36 162.4,13.04 162.64,13.36 162.88,13.04 163.12,13.36 163.36,13.04 163.6,13.36 163.84,13.04 164.08,13.36 164.32,13.04 164.56,13.36 164.8,13.04 165.04,13.36 165.28,13.04 165.52,13.36 165.76,13.04 166,13.36 166.24,13.04 166.48,13.36 166.72,13.04 166.96,13.36 167.2,13.04 167.44,13.36 167.68,13.04 167.92,13.36 168.16,13.04 168.4,13.36 168.64,13.04 168.88,13.36 169.12,13.04 169.36,13.36 169.6,13.04 169.84,13.36 170.08,13.04 170.32,13.36 170.56,13.04 170.8,13.36 171.04,13.04 171.28,13.36 171.52,13.04 171.76,13.36 172,13.04 172.24,13.36 172.48,13.04 172.72,13.36 172.96,13.04 173.2,13.36 173.44,13.04 173.68,13.36 173.92,13.04 174.16,13.36 174.4,13.04 174.64,13.36 174.88,13.04 175.12,13.36 175.36,13.04 175.6,13.36 175.84,13.04 176.08,13.36 176.32,13.04 176.56,13.36 176.8,13.04 177.04,13.36 177.28,13.04 177.52,13.36 177.76,13.04 178,13.36 178.24,13.04 178.48,13.36 178.72,13.04 178.96,13.36 179.2,13.04 179.44,13.36 179.68,13.04 179.92,13.36" stroke="#3333ff" stroke-width="2" fill="none" /></svg>